<svg width="512" height="512" viewBox="0 0 512 512" fill="none" xmlns="http://www.w3.org/2000/svg">
  <defs>
    <linearGradient id="bgGlow" x1="74" y1="56" x2="440" y2="454" gradientUnits="userSpaceOnUse">
      <stop stop-color="#F7F8EE"/>
      <stop offset="0.42" stop-color="#DDEACB"/>
      <stop offset="1" stop-color="#E9D1BE"/>
    </linearGradient>
    <linearGradient id="coreInk" x1="134" y1="104" x2="384" y2="392" gradientUnits="userSpaceOnUse">
      <stop stop-color="#5C7A3F"/>
      <stop offset="0.55" stop-color="#0E5C57"/>
      <stop offset="1" stop-color="#B96A3A"/>
    </linearGradient>
    <radialGradient id="halo" cx="0" cy="0" r="1" gradientUnits="userSpaceOnUse" gradientTransform="translate(256 256) rotate(90) scale(196)">
      <stop stop-color="#FFFFFF" stop-opacity="0.9"/>
      <stop offset="1" stop-color="#FFFFFF" stop-opacity="0"/>
    </radialGradient>
    <filter id="softShadow" x="44" y="36" width="424" height="440" filterUnits="userSpaceOnUse" color-interpolation-filters="sRGB">
      <feFlood flood-opacity="0" result="BackgroundImageFix"/>
      <feColorMatrix in="SourceAlpha" type="matrix" values="0 0 0 0 0 0 0 0 0 0 0 0 0 0 0 0 0 0 127 0" result="hardAlpha"/>
      <feOffset dy="18"/>
      <feGaussianBlur stdDeviation="22"/>
      <feColorMatrix type="matrix" values="0 0 0 0 0.137255 0 0 0 0 0.121569 0 0 0 0 0.105882 0 0 0 0.18 0"/>
      <feBlend mode="normal" in2="BackgroundImageFix" result="effect1_dropShadow_1_1"/>
      <feBlend mode="normal" in="SourceGraphic" in2="effect1_dropShadow_1_1" result="shape"/>
    </filter>
  </defs>

  <rect x="56" y="48" width="400" height="400" rx="124" fill="url(#bgGlow)"/>
  <rect x="70" y="62" width="372" height="372" rx="110" fill="url(#halo)" fill-opacity="0.45" stroke="#FFFFFF" stroke-opacity="0.55" stroke-width="2"/>

  <g opacity="0.88">
    <path d="M256 88C300 88 337 111 360 152" stroke="url(#coreInk)" stroke-width="10" stroke-linecap="round"/>
    <path d="M256 88C212 88 175 111 152 152" stroke="url(#coreInk)" stroke-width="10" stroke-linecap="round"/>
    <path d="M104 252C104 179 171 116 256 116" stroke="url(#coreInk)" stroke-width="6" stroke-linecap="round" opacity="0.35"/>
    <path d="M408 252C408 179 341 116 256 116" stroke="url(#coreInk)" stroke-width="6" stroke-linecap="round" opacity="0.35"/>
  </g>

  <g filter="url(#softShadow)">
    <path d="M256 146C276 170 286 190 286 214C286 250 273 281 256 304C239 281 226 250 226 214C226 190 236 170 256 146Z" fill="url(#coreInk)"/>
    <path d="M206 188C222 205 232 223 232 248C232 278 220 305 202 326C176 305 160 277 160 246C160 221 177 202 206 188Z" fill="url(#coreInk)" opacity="0.9"/>
    <path d="M306 188C335 202 352 221 352 246C352 277 336 305 310 326C292 305 280 278 280 248C280 223 290 205 306 188Z" fill="url(#coreInk)" opacity="0.9"/>
    <path d="M162 270C188 286 202 306 202 332C202 352 194 373 178 390C146 374 126 351 126 322C126 300 138 282 162 270Z" fill="url(#coreInk)" opacity="0.8"/>
    <path d="M350 270C374 282 386 300 386 322C386 351 366 374 334 390C318 373 310 352 310 332C310 306 324 286 350 270Z" fill="url(#coreInk)" opacity="0.8"/>

    <path d="M168 354L210 224H242L256 264L270 224H302L344 354H308L285 274L264 338H248L227 274L204 354H168Z" fill="#FFFDF7"/>
    <path d="M196 338C221 322 239 302 256 274C273 302 291 322 316 338" stroke="#FFFDF7" stroke-width="8" stroke-linecap="round" opacity="0.8"/>
  </g>

  <circle cx="256" cy="256" r="174" stroke="url(#coreInk)" stroke-width="2.5" opacity="0.18"/>
  <circle cx="256" cy="256" r="194" stroke="url(#coreInk)" stroke-width="1.5" opacity="0.1"/>
</svg>
