<svg width="800" height="1000" viewBox="0 0 800 1000" fill="none" xmlns="http://www.w3.org/2000/svg">
  <defs>
    <radialGradient id="halo" cx="0" cy="0" r="1" gradientUnits="userSpaceOnUse" gradientTransform="translate(400 318) rotate(90) scale(292 292)">
      <stop stop-color="#D8E9C1" stop-opacity="0.95"/>
      <stop offset="0.56" stop-color="#A8C97A" stop-opacity="0.3"/>
      <stop offset="1" stop-color="#A8C97A" stop-opacity="0"/>
    </radialGradient>
    <linearGradient id="silhouette" x1="400" y1="196" x2="400" y2="828" gradientUnits="userSpaceOnUse">
      <stop stop-color="#6F9650"/>
      <stop offset="1" stop-color="#355230"/>
    </linearGradient>
  </defs>

  <circle cx="400" cy="318" r="292" fill="url(#halo)"/>
  <path d="M400 178C433.137 178 460 151.137 460 118C460 84.8629 433.137 58 400 58C366.863 58 340 84.8629 340 118C340 151.137 366.863 178 400 178Z" fill="url(#silhouette)"/>
  <path d="M350 176C367 148.5 381.8 135 400 135C418.2 135 433 148.5 450 176" stroke="#6F9650" stroke-width="22" stroke-linecap="round"/>
  <path d="M293 373C311.2 271.8 350.8 212 400 212C449.2 212 488.8 271.8 507 373L535 540H265L293 373Z" fill="url(#silhouette)"/>
  <path d="M251 470C216.2 486.8 186.667 514.667 162 554L244 596L296 530L251 470Z" fill="url(#silhouette)"/>
  <path d="M549 470C583.8 486.8 613.333 514.667 638 554L556 596L504 530L549 470Z" fill="url(#silhouette)"/>
  <path d="M312 524C232.8 586 171.333 653.667 128 727H310L400 622L490 727H672C628.667 653.667 567.2 586 488 524L400 594L312 524Z" fill="url(#silhouette)"/>
  <path d="M230 754C268.667 710.667 325.333 689 400 689C474.667 689 531.333 710.667 570 754" stroke="#4C6D3F" stroke-width="24" stroke-linecap="round"/>
  <path d="M176 816C237.333 770 311.333 747 398 747C484.667 747 559.333 770 622 816" stroke="#6F9650" stroke-width="26" stroke-linecap="round"/>
  <path d="M111 884C186.333 829.333 282.667 802 400 802C517.333 802 613.667 829.333 689 884" stroke="#A8C97A" stroke-width="28" stroke-linecap="round"/>
</svg>
